<?xml version="1.0" encoding="utf-8"?>
<!-- Generator: Adobe Illustrator 26.2.1, SVG Export Plug-In . SVG Version: 6.00 Build 0)  -->
<svg version="1.1"
	 id="svg15045" xmlns:cc="http://creativecommons.org/ns#" xmlns:dc="http://purl.org/dc/elements/1.1/" xmlns:rdf="http://www.w3.org/1999/02/22-rdf-syntax-ns#" xmlns:svg="http://www.w3.org/2000/svg"
	 xmlns="http://www.w3.org/2000/svg" xmlns:xlink="http://www.w3.org/1999/xlink" x="0px" y="0px" viewBox="0 0 400 129"
	 style="enable-background:new 0 0 400 129;" xml:space="preserve">
<style type="text/css">
	.st0{fill:#E60013;}
</style>
<path id="path14394" d="M378.1,59c0,6,4.8,10.8,10.8,10.8c6,0,10.8-4.8,10.8-10.8V29.1c0-6-4.8-10.8-10.8-10.8
	c-6,0-10.8,4.8-10.8,10.8l0,17.6c0,0-1.4,5.9-7.8,6.2c-6.4,0.2-23.9-8.8-30.3-25.5c-2.3-5.6-5.5-7.8-10.4-7.8
	c-4.9,0-9.1,3.1-10.4,7.7c-6.1,20-20.3,26.1-24.8,26.4c-3.4,0.3-5.8,2.6-5.8,5.7c0,3.1,2.4,5.1,5.9,5.1c7.8,0,23.4-4.8,35.2-17.5
	C342.4,59.2,368.1,70.3,378.1,59"/>
<path id="path14396" d="M174.7,48.5c-3.1,0-5.7-2.6-5.7-5.7l0-15.3c0-6,4.8-10.8,10.8-10.8c6,0,10.7,4.8,10.7,10.8v9.7h62
	c7,0,9.1-1.5,11.3-2.3c3.1-1,6.5-0.3,7.8,2.7c1.3,3-0.2,5.9-2.7,7.5c-2.5,1.6-8.2,3.2-16.4,3.2h-23.7v5.9l42.9,0.1
	c3.1,0,5.6,2.6,5.6,5.7c0,3.1-2.5,5.7-5.6,5.7H167.2c-3.2,0-5.7-2.6-5.7-5.7c0-3.1,2.5-5.7,5.7-5.7l40.5-0.1v-5.9L174.7,48.5z"/>
<path id="path14398" d="M166.8,90c0-12.3,23.4-22.2,52.3-22.2c28.9,0,52.3,9.9,52.3,22.2c0,12.3-23.4,22.3-52.3,22.3
	C190.2,112.3,166.8,102.3,166.8,90 M219.1,101.6c16.8,0,30.5-5.2,30.5-11.6c0-6.4-13.7-11.5-30.5-11.5c-16.8,0-30.5,5.2-30.5,11.5
	C188.6,96.4,202.2,101.6,219.1,101.6"/>
<path id="path14400" d="M299.1,76.1c0-3.1,2.5-5.6,5.7-5.6h89.6c3.1,0,5.7,2.5,5.7,5.6v25.1c0,3.1-2.6,5.6-5.7,5.6h-89.6
	c-3.2,0-5.7-2.5-5.7-5.6L299.1,76.1z M320.5,95.6h57.6V81.5h-57.6V95.6z"/>
<path id="path14404" class="st0" d="M5.4,64.5c0-33.1,31.4-59.9,70.2-59.9c38.7,0,70.2,26.8,70.2,59.9c0,33-31.4,59.8-70.2,59.8
	C36.8,124.3,5.4,97.5,5.4,64.5 M75.6,74.7c12.3,0,22.3-14.4,22.3-32.1c0-17.7-10-32.1-22.3-32.1c-12.3,0-22.3,14.4-22.3,32.1
	C53.3,60.3,63.3,74.7,75.6,74.7"/>
</svg>
