<svg xmlns="http://www.w3.org/2000/svg" viewBox="0 0 400 129" style="enable-background:new 0 0 400 129" xml:space="preserve"><path d="M378.1 59c0 6 4.8 10.8 10.8 10.8 6 0 10.8-4.8 10.8-10.8V29.1c0-6-4.8-10.8-10.8-10.8-6 0-10.8 4.8-10.8 10.8v17.6s-1.4 5.9-7.8 6.2c-6.4.2-23.9-8.8-30.3-25.5-2.3-5.6-5.5-7.8-10.4-7.8s-9.1 3.1-10.4 7.7c-6.1 20-20.3 26.1-24.8 26.4-3.4.3-5.8 2.6-5.8 5.7s2.4 5.1 5.9 5.1c7.8 0 23.4-4.8 35.2-17.5 12.7 12.2 38.4 23.3 48.4 12M174.7 48.5c-3.1 0-5.7-2.6-5.7-5.7V27.5c0-6 4.8-10.8 10.8-10.8 6 0 10.7 4.8 10.7 10.8v9.7h62c7 0 9.1-1.5 11.3-2.3 3.1-1 6.5-.3 7.8 2.7 1.3 3-.2 5.9-2.7 7.5-2.5 1.6-8.2 3.2-16.4 3.2h-23.7v5.9l42.9.1c3.1 0 5.6 2.6 5.6 5.7s-2.5 5.7-5.6 5.7H167.2c-3.2 0-5.7-2.6-5.7-5.7s2.5-5.7 5.7-5.7l40.5-.1v-5.9l-33 .2zM166.8 90c0-12.3 23.4-22.2 52.3-22.2s52.3 9.9 52.3 22.2c0 12.3-23.4 22.3-52.3 22.3s-52.3-10-52.3-22.3m52.3 11.6c16.8 0 30.5-5.2 30.5-11.6 0-6.4-13.7-11.5-30.5-11.5s-30.5 5.2-30.5 11.5c0 6.4 13.6 11.6 30.5 11.6M299.1 76.1c0-3.1 2.5-5.6 5.7-5.6h89.6c3.1 0 5.7 2.5 5.7 5.6v25.1c0 3.1-2.6 5.6-5.7 5.6h-89.6c-3.2 0-5.7-2.5-5.7-5.6V76.1zm21.4 19.5h57.6V81.5h-57.6v14.1z"/><path d="M5.4 64.5c0-33.1 31.4-59.9 70.2-59.9 38.7 0 70.2 26.8 70.2 59.9 0 33-31.4 59.8-70.2 59.8-38.8 0-70.2-26.8-70.2-59.8m70.2 10.2c12.3 0 22.3-14.4 22.3-32.1 0-17.7-10-32.1-22.3-32.1S53.3 24.9 53.3 42.6c0 17.7 10 32.1 22.3 32.1" style="fill:#e60013"/></svg>